<svg xml:space="preserve" style="enable-background:new 0 0 1024 1024;" viewBox="0 0 1024 1024" y="0px" x="0px" xmlns:xlink="http://www.w3.org/1999/xlink" xmlns="http://www.w3.org/2000/svg" id="图层_1" version="1.1">
<style type="text/css">
	.st0{fill:#FEA92E;stroke:#6A3906;stroke-width:6;stroke-miterlimit:10;}
	.st1{fill:#22AC38;}
	.st2{clip-path:url(#SVGID_2_);fill:#22AC38;stroke:#6A3906;stroke-width:6;stroke-miterlimit:10;}
	.st3{clip-path:url(#SVGID_4_);fill:#22AC38;stroke:#6A3906;stroke-width:6;stroke-miterlimit:10;}
	.st4{clip-path:url(#SVGID_6_);fill:#22AC38;stroke:#6A3906;stroke-width:6;stroke-miterlimit:10;}
	.st5{fill:none;stroke:#6A3906;stroke-width:6;stroke-miterlimit:10;}
	.st6{clip-path:url(#SVGID_8_);fill:#22AC38;stroke:#6A3906;stroke-width:6;stroke-miterlimit:10;}
	.st7{clip-path:url(#SVGID_10_);fill:none;stroke:#6A3906;stroke-width:6;stroke-miterlimit:10;}
	.st8{clip-path:url(#SVGID_12_);fill:none;stroke:#6A3906;stroke-width:6;stroke-miterlimit:10;}
	.st9{clip-path:url(#SVGID_14_);fill:none;stroke:#6A3906;stroke-width:6;stroke-miterlimit:10;}
	.st10{fill:#FFCA5F;}
	.st11{clip-path:url(#SVGID_16_);fill:#FEA92E;}
	.st12{clip-path:url(#SVGID_18_);fill:#DC8815;}
	.st13{clip-path:url(#SVGID_20_);fill:#FEA92E;}
	.st14{clip-path:url(#SVGID_22_);fill:#FFEDB4;}
	.st15{fill:#BA8C64;stroke:#6A3906;stroke-width:6;stroke-miterlimit:10;}
	.st16{fill:#6A3906;}
</style>
<g>
	<g id="植物5">
		<g>
			<g>
				<path d="M663.7,178.8c-7.9,4.1-15.9,4.2-18,0.2c-2-4,2.7-10.5,10.6-14.5c7.9-4.1,18-0.2,18-0.2
					S671.6,174.8,663.7,178.8z" class="st0"></path>
				<path d="M654.5,163.4c-0.4,8.9-4.4,15.9-8.8,15.7c-4.4-0.2-7.7-7.6-7.3-16.4s8.8-15.7,8.8-15.7
					S655,154.5,654.5,163.4z" class="st0"></path>
				<path d="M661.2,169.9c-4.8,7.5-11.7,11.6-15.5,9.2s-2.9-10.4,1.9-17.9c4.8-7.5,15.5-9.2,15.5-9.2
					S666,162.4,661.2,169.9z" class="st0"></path>
				<path d="M645.5,161c4.1,7.9,4.2,15.9,0.2,18s-10.5-2.7-14.5-10.6s-0.2-18-0.2-18S641.5,153.2,645.5,161z" class="st0"></path>
				<path d="M636.6,163.5c7.5,4.8,11.6,11.7,9.2,15.5c-2.4,3.7-10.4,2.9-17.9-1.9c-7.5-4.8-9.2-15.5-9.2-15.5
					S629.1,158.7,636.6,163.5z" class="st0"></path>
			</g>
			<g>
				<path d="M510.4,172.3c-12.4,6.4-25.1,6.5-28.4,0.3c-3.2-6.2,4.3-16.5,16.7-22.9c12.4-6.4,28.4-0.3,28.4-0.3
					S522.8,165.9,510.4,172.3z" class="st0"></path>
				<path d="M495.9,147.9c-0.7,14-6.9,25-13.9,24.7s-12.2-11.9-11.5-25.9s13.9-24.7,13.9-24.7S496.6,133.9,495.9,147.9z" class="st0"></path>
				<path d="M506.4,158.2c-7.6,11.8-18.5,18.2-24.4,14.4s-4.6-16.4,3-28.2s24.4-14.4,24.4-14.4S514,146.4,506.4,158.2z" class="st0"></path>
				<path d="M481.7,144.3c6.4,12.4,6.5,25.1,0.3,28.4c-6.2,3.2-16.5-4.3-22.9-16.7s-0.3-28.4-0.3-28.4
					S475.3,131.8,481.7,144.3z" class="st0"></path>
				<path d="M467.6,148.2c11.8,7.6,18.2,18.5,14.4,24.4c-3.8,5.9-16.4,4.6-28.2-3c-11.8-7.6-14.4-24.4-14.4-24.4
					S455.8,140.7,467.6,148.2z" class="st0"></path>
			</g>
			<g>
				<path d="M348.4,334.3c-7.9,4.1-15.9,4.2-18,0.2c-2-4,2.7-10.5,10.6-14.5s18-0.2,18-0.2S356.3,330.2,348.4,334.3z" class="st0"></path>
				<path d="M339.2,318.8c-0.4,8.9-4.4,15.9-8.8,15.7c-4.4-0.2-7.7-7.6-7.3-16.4c0.4-8.9,8.8-15.7,8.8-15.7
					S339.7,309.9,339.2,318.8z" class="st0"></path>
				<path d="M345.9,325.3c-4.8,7.5-11.7,11.6-15.5,9.2c-3.7-2.4-2.9-10.4,1.9-17.9s15.5-9.2,15.5-9.2
					S350.7,317.8,345.9,325.3z" class="st0"></path>
				<path d="M330.2,316.5c4.1,7.9,4.2,15.9,0.2,18c-4,2-10.5-2.7-14.5-10.6s-0.2-18-0.2-18S326.2,308.6,330.2,316.5z" class="st0"></path>
				<path d="M321.3,319c7.5,4.8,11.6,11.7,9.2,15.5c-2.4,3.7-10.4,2.9-17.9-1.9s-9.2-15.5-9.2-15.5
					S313.8,314.2,321.3,319z" class="st0"></path>
			</g>
			<g>
				<g>
					<path d="M483.2,352.3v21.2c0,8.4,6.6,15.3,15,15.7c38.7,1.8,124.1-1.2,153.1-53.2
						c29.1-52.2,30.7-116.1,28.6-135.1c-0.4-3.8-2.7-6.9-5-9.9c-1.3-1.6-3.2-3.7-5.7-5.8c-12.1-10.4-37-22.7-59,4.1
						c-3.1,3.8-3.9,8-4,12.5c-0.8,25.4,5,117.3-109.6,134.8C488.9,337.8,483.2,344.5,483.2,352.3z" class="st1" id="XMLID_25_"></path>
				</g>
				<g>
					<defs>
						<path d="M483.2,352.3v21.2c0,8.4,6.6,15.3,15,15.7c38.7,1.8,124.1-1.2,153.1-53.2
							c29.1-52.2,30.7-116.1,28.6-135.1c-0.4-3.8-2.7-6.9-5-9.9c-1.3-1.6-3.2-3.7-5.7-5.8c-12.1-10.4-37-22.7-59,4.1
							c-3.1,3.8-3.9,8-4,12.5c-0.8,25.4,5,117.3-109.6,134.8C488.9,337.8,483.2,344.5,483.2,352.3z" id="SVGID_1_"></path>
					</defs>
					<clipPath id="SVGID_2_">
						<use style="overflow:visible;" xlink:href="#SVGID_1_"></use>
					</clipPath>
					<path d="M674.3,146.8" class="st2"></path>
				</g>
				<g>
					<defs>
						<path d="M483.2,352.3v21.2c0,8.4,6.6,15.3,15,15.7c38.7,1.8,124.1-1.2,153.1-53.2
							c29.1-52.2,30.7-116.1,28.6-135.1c-0.4-3.8-2.7-6.9-5-9.9c-1.3-1.6-3.2-3.7-5.7-5.8c-12.1-10.4-37-22.7-59,4.1
							c-3.1,3.8-3.9,8-4,12.5c-0.8,25.4,5,117.3-109.6,134.8C488.9,337.8,483.2,344.5,483.2,352.3z" id="SVGID_3_"></path>
					</defs>
					<clipPath id="SVGID_4_">
						<use style="overflow:visible;" xlink:href="#SVGID_3_"></use>
					</clipPath>
					<path d="M654.5,157c0,0,0.6,101.8-25.2,155.1c-5.7,11.8-15.3,21.4-27,27.2c-19.3,9.7-56.8,25.2-104.8,29.4" class="st3"></path>
				</g>
				<g>
					<defs>
						<path d="M483.2,352.3v21.2c0,8.4,6.6,15.3,15,15.7c38.7,1.8,124.1-1.2,153.1-53.2
							c29.1-52.2,30.7-116.1,28.6-135.1c-0.4-3.8-2.7-6.9-5-9.9c-1.3-1.6-3.2-3.7-5.7-5.8c-12.1-10.4-37-22.7-59,4.1
							c-3.1,3.8-3.9,8-4,12.5c-0.8,25.4,5,117.3-109.6,134.8C488.9,337.8,483.2,344.5,483.2,352.3z" id="SVGID_5_"></path>
					</defs>
					<clipPath id="SVGID_6_">
						<use style="overflow:visible;" xlink:href="#SVGID_5_"></use>
					</clipPath>
					<path d="M632.5,155c0,0,26.6,162.7-113.4,192.7" class="st4"></path>
				</g>
				<g>
					<path d="M483.2,352.3v21.2c0,8.4,6.6,15.3,15,15.7c38.7,1.8,124.1-1.2,153.1-53.2
						c29.1-52.2,30.7-116.1,28.6-135.1c-0.4-3.8-2.7-6.9-5-9.9c-1.3-1.6-3.2-3.7-5.7-5.8c-12.1-10.4-37-22.7-59,4.1
						c-3.1,3.8-3.9,8-4,12.5c-0.8,25.4,5,117.3-109.6,134.8C488.9,337.8,483.2,344.5,483.2,352.3z" class="st5" id="XMLID_26_"></path>
				</g>
			</g>
			<g>
				<g>
					<path d="M442.3,452.5v14.4c0,5.7-4.5,10.4-10.2,10.7c-26.2,1.2-84-0.8-103.6-36
						c-19.7-35.3-20.8-78.6-19.4-91.4c0.3-2.6,1.8-4.7,3.4-6.7c5.1-6.5,25.9-23,43.8-1.2c2.1,2.5,2.6,5.4,2.7,8.4
						c0.5,17.2-3.4,79.4,74.1,91.2C438.4,442.7,442.3,447.2,442.3,452.5z" class="st1" id="XMLID_27_"></path>
				</g>
				<g>
					<defs>
						<path d="M442.3,452.5v14.4c0,5.7-4.5,10.4-10.2,10.7c-26.2,1.2-84-0.8-103.6-36c-19.7-35.3-20.8-78.6-19.4-91.4
							c0.3-2.6,1.8-4.7,3.4-6.7c5.1-6.5,25.9-23,43.8-1.2c2.1,2.5,2.6,5.4,2.7,8.4c0.5,17.2-3.4,79.4,74.1,91.2
							C438.4,442.7,442.3,447.2,442.3,452.5z" id="SVGID_7_"></path>
					</defs>
					<clipPath id="SVGID_8_">
						<use style="overflow:visible;" xlink:href="#SVGID_7_"></use>
					</clipPath>
					<path d="M324.6,327.7c3.5,1-8.8,144,118.2,135" class="st6"></path>
				</g>
				<g>
					<path d="M442.3,452.5v14.4c0,5.7-4.5,10.4-10.2,10.7c-26.2,1.2-84-0.8-103.6-36
						c-19.7-35.3-20.8-78.6-19.4-91.4c0.3-2.6,1.8-4.7,3.4-6.7c5.1-6.5,25.9-23,43.8-1.2c2.1,2.5,2.6,5.4,2.7,8.4
						c0.5,17.2-3.4,79.4,74.1,91.2C438.4,442.7,442.3,447.2,442.3,452.5z" class="st5" id="XMLID_28_"></path>
				</g>
			</g>
			<g>
				<g>
					<path d="M507.9,590.3h-54.5c-17.6,0-32-14.4-32-32V200.5c0-17.6,14.4-32,32-32h54.5
						c17.6,0,32,14.4,32,32v357.9C539.9,575.9,525.5,590.3,507.9,590.3z" class="st1" id="XMLID_29_"></path>
				</g>
				<g>
					<defs>
						<path d="M507.9,590.3h-54.5c-17.6,0-32-14.4-32-32V200.5c0-17.6,14.4-32,32-32h54.5c17.6,0,32,14.4,32,32v357.9
							C539.9,575.9,525.5,590.3,507.9,590.3z" id="SVGID_9_"></path>
					</defs>
					<clipPath id="SVGID_10_">
						<use style="overflow:visible;" xlink:href="#SVGID_9_"></use>
					</clipPath>
					<line y2="588.3" x2="442.3" y1="168.5" x1="442.3" class="st7"></line>
				</g>
				<g>
					<defs>
						<path d="M507.9,590.3h-54.5c-17.6,0-32-14.4-32-32V200.5c0-17.6,14.4-32,32-32h54.5c17.6,0,32,14.4,32,32
							v357.9C539.9,575.9,525.5,590.3,507.9,590.3z" id="SVGID_11_"></path>
					</defs>
					<clipPath id="SVGID_12_">
						<use style="overflow:visible;" xlink:href="#SVGID_11_"></use>
					</clipPath>
					<line y2="594.9" x2="519.1" y1="165.8" x1="519.1" class="st8"></line>
				</g>
				<g>
					<defs>
						<path d="M507.9,590.3h-54.5c-17.6,0-32-14.4-32-32V200.5c0-17.6,14.4-32,32-32h54.5c17.6,0,32,14.4,32,32
							v357.9C539.9,575.9,525.5,590.3,507.9,590.3z" id="SVGID_13_"></path>
					</defs>
					<clipPath id="SVGID_14_">
						<use style="overflow:visible;" xlink:href="#SVGID_13_"></use>
					</clipPath>
					<line y2="593.5" x2="480.7" y1="157.7" x1="480.7" class="st9"></line>
				</g>
				<g>
					<path d="M507.9,590.3h-54.5c-17.6,0-32-14.4-32-32V200.5c0-17.6,14.4-32,32-32h54.5
						c17.6,0,32,14.4,32,32v357.9C539.9,575.9,525.5,590.3,507.9,590.3z" class="st5" id="XMLID_30_"></path>
				</g>
			</g>
			<g>
				<g>
					<g>
						<path d="M623,773.3H346.2c-9.1,0-15.7-6.5-13.6-13.2c-19.3-61.2-5-119.6,56.7-174
							c2.1-6.3,9.5-10.7,18-10.7h145.2c8.1,0,15.2,4.1,17.4,10c67.7,55,88.1,113.5,65.6,175.3C637.9,767,631.7,773.3,623,773.3z" class="st10" id="XMLID_31_"></path>
					</g>
					<g>
						<defs>
							<path d="M623,773.3H346.2c-9.1,0-15.7-6.5-13.6-13.2c-19.3-61.2-5-119.6,56.7-174c2.1-6.3,9.5-10.7,18-10.7
								h145.2c8.1,0,15.2,4.1,17.4,10c67.7,55,88.1,113.5,65.6,175.3C637.9,767,631.7,773.3,623,773.3z" id="SVGID_15_"></path>
						</defs>
						<clipPath id="SVGID_16_">
							<use style="overflow:visible;" xlink:href="#SVGID_15_"></use>
						</clipPath>
						<path d="M479.1,545.3c0,0-49.8,102-29.8,143s-32,149-22,183s290,0,294-18s0-310-14-312S479.1,545.3,479.1,545.3z" class="st11"></path>
					</g>
					<g>
						<defs>
							<path d="M623,773.3H346.2c-9.1,0-15.7-6.5-13.6-13.2c-19.3-61.2-5-119.6,56.7-174c2.1-6.3,9.5-10.7,18-10.7
								h145.2c8.1,0,15.2,4.1,17.4,10c67.7,55,88.1,113.5,65.6,175.3C637.9,767,631.7,773.3,623,773.3z" id="SVGID_17_"></path>
						</defs>
						<clipPath id="SVGID_18_">
							<use style="overflow:visible;" xlink:href="#SVGID_17_"></use>
						</clipPath>
						<path d="M541.4,590.3c0,0-24,57.4,6,98s-21,145.6-15,162.1s195-10.5,198-46.5S599.9,550.4,599.9,550.4
							L541.4,590.3L541.4,590.3" class="st12"></path>
					</g>
					<g>
						<defs>
							<path d="M623,773.3H346.2c-9.1,0-15.7-6.5-13.6-13.2c-19.3-61.2-5-119.6,56.7-174c2.1-6.3,9.5-10.7,18-10.7
								h145.2c8.1,0,15.2,4.1,17.4,10c67.7,55,88.1,113.5,65.6,175.3C637.9,767,631.7,773.3,623,773.3z" id="SVGID_19_"></path>
						</defs>
						<clipPath id="SVGID_20_">
							<use style="overflow:visible;" xlink:href="#SVGID_19_"></use>
						</clipPath>
						<path d="M390.6,688.3c0,0,5,59.7,17.7,28s4-54,2.3-58C409,654.3,391.6,658.3,390.6,688.3z" class="st13"></path>
					</g>
					<g>
						<defs>
							<path d="M623,773.3H346.2c-9.1,0-15.7-6.5-13.6-13.2c-19.3-61.2-5-119.6,56.7-174c2.1-6.3,9.5-10.7,18-10.7
								h145.2c8.1,0,15.2,4.1,17.4,10c67.7,55,88.1,113.5,65.6,175.3C637.9,767,631.7,773.3,623,773.3z" id="SVGID_21_"></path>
						</defs>
						<clipPath id="SVGID_22_">
							<use style="overflow:visible;" xlink:href="#SVGID_21_"></use>
						</clipPath>
						<path d="M459.9,598.2c0,0-7,20.7,3,29s10.3-31.3,10.3-31.3S463.9,591.2,459.9,598.2z" class="st14"></path>
					</g>
					<g>
						<path d="M623,773.3H346.2c-9.1,0-15.7-6.5-13.6-13.2c-19.3-61.2-5-119.6,56.7-174
							c2.1-6.3,9.5-10.7,18-10.7h145.2c8.1,0,15.2,4.1,17.4,10c67.7,55,88.1,113.5,65.6,175.3C637.9,767,631.7,773.3,623,773.3z" class="st5" id="XMLID_32_"></path>
					</g>
				</g>
				<path d="M566.9,590.3H394.5c-8.3,0-15-6.7-15-15l0,0c0-8.3,6.7-15,15-15h172.4c8.3,0,15,6.7,15,15l0,0
					C581.9,583.6,575.2,590.3,566.9,590.3z" class="st15"></path>
			</g>
		</g>
	</g>
	<polygon points="537.3,434.6 532.4,465.4 568.9,453.1 544.8,454 560.2,426.2 541.4,451.4" class="st16"></polygon>
	<polygon points="634.8,315.3 629.9,346.1 666.4,333.9 642.3,334.7 657.7,307 638.9,332.2" class="st16"></polygon>
	<polygon points="582.8,310.1 577.9,340.8 614.4,328.6 590.3,329.5 605.7,301.7 586.9,326.9" class="st16"></polygon>
	<polygon points="537.3,270.1 532.4,300.9 568.9,288.7 544.8,289.5 560.2,261.8 541.4,287" class="st16"></polygon>
	<polygon points="661,239.2 656.1,270 692.6,257.8 668.5,258.6 683.9,230.9 665.1,256.1" class="st16"></polygon>
	<polygon points="441,267.5 466.6,285.3 471.4,247 461.7,269.1 443.4,243.2 458,271.1" class="st16"></polygon>
	<polygon points="401.5,213.1 427.1,230.9 431.9,192.6 422.2,214.7 403.9,188.8 418.5,216.7" class="st16"></polygon>
	<polygon points="409,382.6 434.6,400.4 439.4,362.2 429.8,384.2 411.4,358.4 426,386.2" class="st16"></polygon>
	<polygon points="441,451.4 466.6,469.2 471.4,430.9 461.7,453 443.4,427.1 458,455" class="st16"></polygon>
	<polygon points="401.5,523.1 427.1,540.9 431.9,502.6 422.2,524.7 403.9,498.9 418.5,526.7" class="st16"></polygon>
	<polygon points="362.9,376.1 356.7,404.2 389.2,393.5 368.3,394 383.3,368.8 365.4,391.6" class="st16"></polygon>
	<polygon points="308.6,445.5 337.9,435 309.6,408.8 322,429.5 290.3,429.4 321.4,433.7" class="st16"></polygon>
	<polygon points="361.8,484.5 375.8,464.2 342.7,454.8 362.2,466.3 340.8,479.1 364.1,469.9" class="st16"></polygon>
	<polygon points="535.2,200.1 530.3,230.9 566.9,218.6 542.8,219.5 558.1,191.8 539.4,217" class="st16"></polygon>
	<polygon points="490.9,324.6 485.9,355.3 522.5,343.1 498.4,344 513.8,316.2 495,341.4" class="st16"></polygon>
</g>
</svg>
